# xmcd CD database file
#
# Track frame offsets:
#	150
#	50127
#	105835
#	170232
#
# Disc length: 2480 seconds
#
# Revision: 0
# Processed by: cddbd v1.5.1PL0 Copyright (c) Steve Scherf et al.
# Submitted via: CDex 1.51
#
DISCID=3009ae04
DTITLE=David Salvans - Montseny
DYEAR=1993
DGENRE=New Age
TTITLE0=Turo de grenys
TTITLE1=Fragments
TTITLE2=Montseny
TTITLE3=Tufts and Music
EXTD=YEAR: 1993
EXTT0=
EXTT1=
EXTT2=
EXTT3=
PLAYORDER=
